HIERARCHY
ROOT Hips
{
  OFFSET 265.287 66.7526 -254.649
  CHANNELS 6 Xposition Yposition Zposition Zrotation Xrotation Yrotation
  JOINT LeftUpLeg
  {
    OFFSET 8.64259 1.95398 -2.38835
    CHANNELS 3 Zrotation Xrotation Yrotation
    JOINT LeftLeg
    {
      OFFSET 43.7702 0 0
      CHANNELS 3 Zrotation Xrotation Yrotation
      JOINT LeftFoot
      {
        OFFSET 40.6238 0 0
        CHANNELS 3 Zrotation Xrotation Yrotation
        JOINT LeftToeBase
        {
          OFFSET 12.7242 0 0
          CHANNELS 3 Zrotation Xrotation Yrotation
          End Site
          {
            OFFSET 0 0 0
          }
        }
      }
    }
  }
  JOINT RightUpLeg
  {
    OFFSET -8.2249 1.95398 -2.59336
    CHANNELS 3 Zrotation Xrotation Yrotation
    JOINT RightLeg
    {
      OFFSET 43.5653 0 0
      CHANNELS 3 Zrotation Xrotation Yrotation
      JOINT RightFoot
      {
        OFFSET 40.6238 0 0
        CHANNELS 3 Zrotation Xrotation Yrotation
        JOINT RightToeBase
        {
          OFFSET 12.7242 0 0
          CHANNELS 3 Zrotation Xrotation Yrotation
          End Site
          {
            OFFSET 0 0 0
          }
        }
      }
    }
  }
  JOINT Spine
  {
    OFFSET 0.165834 0.87714 6.61349
    CHANNELS 3 Zrotation Xrotation Yrotation
    JOINT Spine1
    {
      OFFSET 7.38963 1.71661e-005 0
      CHANNELS 3 Zrotation Xrotation Yrotation
      JOINT Spine2
      {
        OFFSET 11.9445 1.14441e-005 0
        CHANNELS 3 Zrotation Xrotation Yrotation
        JOINT Spine3
        {
          OFFSET 14.7254 4.19617e-005 0
          CHANNELS 3 Zrotation Xrotation Yrotation
          JOINT Spine4
          {
            OFFSET 10.9679 0 0
            CHANNELS 3 Zrotation Xrotation Yrotation
            JOINT RightShoulder
            {
              OFFSET 2.46616 -1.6653 3.69651
              CHANNELS 3 Zrotation Xrotation Yrotation
              JOINT RightArm
              {
                OFFSET 13.0012 0 0
                CHANNELS 3 Zrotation Xrotation Yrotation
                JOINT RightForeArm
                {
                  OFFSET 28.7848 1.52588e-005 0
                  CHANNELS 3 Zrotation Xrotation Yrotation
                  JOINT RightHand
                  {
                    OFFSET 26.5688 1.52588e-005 0
                    CHANNELS 3 Zrotation Xrotation Yrotation
                    End Site
                    {
                      OFFSET 0 0 0
                    }
                  }
                }
              }
            }
            JOINT LeftShoulder
            {
              OFFSET 2.38034 -1.29275 -3.7523
              CHANNELS 3 Zrotation Xrotation Yrotation
              JOINT LeftArm
              {
                OFFSET 16.3182 6.10351e-005 0
                CHANNELS 3 Zrotation Xrotation Yrotation
                JOINT LeftForeArm
                {
                  OFFSET 27.0901 0 0
                  CHANNELS 3 Zrotation Xrotation Yrotation
                  JOINT LeftHand
                  {
                    OFFSET 24.5451 1.52588e-005 0
                    CHANNELS 3 Zrotation Xrotation Yrotation
                    End Site
                    {
                      OFFSET 0 0 0
                    }
                  }
                }
              }
            }
            JOINT Neck
            {
              OFFSET 5.0226 -0.0266342 0
              CHANNELS 3 Zrotation Xrotation Yrotation
              JOINT Head
              {
                OFFSET 6.69364 2.86102e-005 0
                CHANNELS 3 Zrotation Xrotation Yrotation
                End Site
                {
                  OFFSET 0 0 0
                }
              }
            }
          }
        }
      }
    }
  }
}
MOTION
Frames:	6
Frame Time:	0.0416667
-1.28368 10.1605 -57.5179 170.343 2.12186 173.306 -150.384 16.0294 99.9035 -42.8853 -14.1874 -12.3384 43.3929 -4.34812 -12.0005 29.3835 -1.54594 12.8828 171.523 2.1933 81.4047 -12.3351 20.269 0.944704 44.239 12.137 24.8863 28.2266 0.791039 -5.87523 -0.996069 7.7153 -90.7003 11.4357 -2.30874 -1.16066 -0.233658 -2.35759 -1.05789 -22.7762 -1.85321 -1.80096 -2.76351 -1.85321 -1.80096 103.25 14.8841 -73.1427 83.6065 -3.46503 -4.89472 -4.96974 -71.7107 -8.21136 -4.44066 -0.434015 7.04996 -74.7715 -8.10619 105.742 -79.0947 17.3037 -11.9564 5.09533 55.4619 0.0111775 -5.31214 -0.178702 -0.93445 36.2177 7.85628 9.72094 -25.9408 3.30136 -1.81326 
-1.18222 10.1615 -57.4501 169.828 2.13757 173.235 -150.327 16.2016 99.7605 -42.8279 -13.1359 -12.273 43.0866 -4.49404 -11.3067 30.9184 -1.87465 13.2944 170.6 2.59137 80.7668 -13.4145 19.8382 1.95257 44.9957 11.9488 24.67 27.8631 0.799854 -5.37169 -1.02981 7.71087 -90.6955 11.4401 -2.37371 -1.14476 -0.229117 -2.42179 -1.03914 -22.7725 -1.91995 -1.80532 -2.7599 -1.91995 -1.80534 103.259 14.8764 -73.0775 83.5212 -3.48272 -4.69745 -5.29132 -71.517 -8.6554 -4.52441 -0.443319 7.05946 -74.7812 -8.08594 105.718 -78.9339 17.7431 -12.1315 5.06047 54.8166 0.0107596 -1.67926 -0.0531898 0.0625481 36.3966 7.943 9.71586 -26.4855 3.41834 -2.01682 
-1.17691 10.1851 -57.5262 169.612 2.06015 173.321 -150.567 16.2559 99.7939 -42.7378 -13.2759 -12.2871 43.1947 -4.49581 -11.7804 30.7327 -1.94264 14.4442 171.287 1.87031 81.2612 -11.7886 20.6932 1.167 43.6276 12.205 24.7041 29.3443 0.588158 -6.04558 -1.04899 7.69763 -90.7061 11.4666 -2.4169 -1.16072 -0.202525 -2.46565 -1.05319 -22.7463 -1.95636 -1.83354 -2.73369 -1.95636 -1.83355 103.255 14.8407 -73.1331 83.5063 -3.42917 -4.62578 -5.41874 -71.7965 -8.81125 -4.66622 -0.462712 7.18075 -74.8224 -8.04791 105.605 -79.0081 17.722 -11.9163 4.85126 55.0947 0.010615 -4.08823 -0.132092 -0.429113 36.3405 7.91357 9.73107 -26.2086 3.39176 -2.05198 
-1.235 10.1594 -57.5045 170.174 2.20795 173.294 -150.432 16.0092 99.9278 -42.9808 -13.9436 -12.3537 43.9209 -4.25592 -12.169 30.2663 -1.87481 14.5926 171.28 1.90033 81.2103 -12.0836 20.8152 1.09436 43.5665 12.1561 25.1938 29.2618 0.604767 -6.05733 -1.00269 7.72816 -90.6978 11.4059 -2.32073 -1.15561 -0.263363 -2.36933 -1.05232 -22.8061 -1.86616 -1.79975 -2.79342 -1.86617 -1.79974 103.241 14.8484 -73.2363 83.5316 -3.3912 -4.50709 -6.19545 -72.0482 -9.64215 -4.38996 -0.435505 7.25861 -74.8638 -8.10263 105.473 -79.0632 17.6121 -11.5491 4.89618 55.0028 0.0103988 -1.15135 -0.0378506 0.755262 36.3049 8.13475 9.75539 -26.134 3.60546 -2.10727 
-1.28497 10.1792 -57.5016 170.327 2.09989 173.388 -150.334 16.127 100.011 -42.9429 -13.7843 -12.3691 43.7526 -4.30882 -12.0157 30.7899 -1.9608 14.5308 171.489 1.93317 81.4007 -12.0815 21.3534 0.928802 44.0404 12.0573 25.618 28.2825 0.997562 -7.66112 -1.01448 7.71737 -90.7068 11.4272 -2.34843 -1.17017 -0.242125 -2.39765 -1.06564 -22.785 -1.88821 -1.82196 -2.77234 -1.88821 -1.82195 103.236 14.7798 -73.3233 83.6306 -3.2471 -4.72615 -5.55812 -72.0418 -8.83797 -4.70934 -0.469105 7.22965 -74.8131 -8.08906 105.624 -79.0075 17.5637 -11.4784 4.89855 54.8944 0.0102125 -1.67492 -0.0616587 0.371269 36.2144 8.288 9.73672 -25.7773 3.74895 -2.03232 
-1.29356 10.1921 -57.5251 170.272 2.0426 173.493 -150.364 16.2302 100.059 -42.8079 -13.5764 -12.3055 43.3324 -4.42928 -11.9854 31.2805 -2.0647 14.7438 171.565 1.97565 81.5304 -12.2126 21.6413 0.920409 44.2644 12.039 25.2113 27.6081 1.03282 -6.79851 -1.00958 7.70807 -90.7225 11.4454 -2.34609 -1.20129 -0.223884 -2.39668 -1.09685 -22.7664 -1.87664 -1.85092 -2.75377 -1.87663 -1.85093 103.253 14.8081 -73.1685 83.6266 -3.36697 -4.88032 -4.72323 -71.3619 -7.98272 -4.7145 -0.465706 7.11999 -74.7562 -8.18363 105.771 -79.0432 17.1601 -11.8603 5.29069 54.9582 0.0101094 -1.4043 -0.0542873 -0.0680298 36.2734 8.20742 9.8434 -26.0012 3.6789 -2.32422 
